<?xml version="1.0" standalone="no"?>
<!DOCTYPE svg PUBLIC "-//W3C//DTD SVG 20010904//EN"
 "http://www.w3.org/TR/2001/REC-SVG-20010904/DTD/svg10.dtd">
<svg version="1.0" xmlns="http://www.w3.org/2000/svg"
 width="512.000000pt" height="512.000000pt" viewBox="0 0 512.000000 512.000000"
 preserveAspectRatio="xMidYMid meet">
<metadata>
Created by potrace 1.14, written by Peter Selinger 2001-2017
</metadata>
<g transform="translate(0.000000,512.000000) scale(0.100000,-0.100000)"
fill="#000000" stroke="none">
<path d="M3075 5013 c-305 -25 -528 -63 -675 -113 -61 -21 -96 -28 -122 -24
-27 5 -95 -13 -309 -81 -365 -116 -367 -117 -381 -170 -11 -41 -12 -42 -174
-123 -293 -148 -704 -449 -704 -516 0 -16 -23 -40 -79 -85 -44 -34 -92 -78
-107 -98 l-26 -35 27 -66 c38 -94 119 -244 138 -256 11 -7 39 -6 89 3 40 8
101 16 134 18 53 5 65 2 83 -16 15 -15 33 -21 68 -21 107 0 422 73 648 149
138 47 177 51 200 19 15 -23 14 -24 -52 -55 -38 -18 -237 -108 -443 -199 -422
-187 -466 -209 -532 -275 -112 -112 -162 -316 -110 -459 45 -125 868 -2052
939 -2197 76 -157 173 -237 327 -270 84 -18 183 -12 254 15 68 26 1706 930
2079 1148 220 129 255 159 306 264 31 64 32 68 31 200 -2 215 65 95 -742 1325
-400 608 -523 788 -581 848 -83 87 -202 125 -326 105 -33 -5 -129 -38 -213
-74 -85 -35 -156 -64 -158 -64 -2 0 -4 11 -4 24 0 32 33 56 173 129 303 159
563 351 583 432 13 51 -2 227 -25 295 -31 90 -83 165 -138 200 -48 31 -65 33
-178 23z m-1380 -394 c29 -28 77 -86 106 -130 38 -59 56 -78 68 -74 9 3 141
56 295 117 l278 112 19 -25 c43 -56 143 -370 123 -389 -5 -4 -135 -59 -289
-120 -154 -62 -281 -113 -283 -114 -1 -2 16 -68 39 -147 115 -407 326 -1346
307 -1365 -2 -2 -32 124 -67 279 -198 889 -330 1353 -463 1627 -53 109 -70
134 -134 198 -41 40 -74 75 -74 77 0 16 28 -1 75 -46z m-1038 -765 c-26 -24
-47 -54 -47 -64 0 -24 6 -24 67 -4 46 16 47 16 66 -7 11 -13 30 -46 44 -73 30
-59 27 -63 -67 -96 -36 -12 -69 -26 -74 -30 -12 -12 1 -57 24 -80 11 -11 15
-22 10 -25 -10 -6 -124 201 -142 258 -10 34 -9 40 13 64 33 36 141 115 147
108 3 -3 -15 -26 -41 -51z m2476 -97 c38 -21 90 -93 258 -359 63 -100 269
-421 484 -755 22 -34 85 -132 140 -218 55 -86 119 -186 143 -221 76 -117 102
-169 107 -220 l4 -49 -9 43 c-11 50 -31 85 -280 472 -101 157 -212 330 -247
385 -35 55 -90 141 -122 190 -32 50 -100 156 -152 237 -316 494 -303 478 -404
497 -70 13 -115 2 -239 -57 -120 -57 -116 -56 -116 -42 0 6 4 10 9 10 5 0 58
23 118 52 59 28 122 55 138 59 45 12 125 0 168 -24z m-34 -164 c30 -22 76 -91
319 -483 214 -344 406 -641 603 -930 186 -273 184 -270 169 -326 -25 -89 -51
-105 -665 -434 -352 -189 -796 -423 -1055 -557 -155 -80 -307 -91 -402 -28
-33 22 -50 49 -114 183 -42 86 -105 220 -139 297 -35 77 -96 210 -135 295 -40
85 -118 261 -175 390 -309 707 -308 704 -262 783 14 24 43 57 63 72 48 37 482
237 495 229 24 -15 219 -259 219 -274 0 -9 -27 -83 -60 -166 -33 -82 -59 -154
-58 -161 2 -7 47 9 118 41 63 29 122 55 132 58 22 9 65 -58 167 -264 46 -93
88 -168 92 -168 5 0 102 45 216 100 114 55 211 99 216 97 4 -1 -86 -47 -202
-102 -116 -55 -210 -106 -211 -112 0 -7 2 -13 5 -13 6 0 318 146 389 182 21
11 36 16 33 11 -3 -5 -98 -54 -211 -108 -189 -90 -230 -115 -192 -115 7 0 103
43 211 95 109 53 202 94 207 93 5 -2 -86 -48 -202 -103 -116 -54 -210 -105
-210 -112 0 -7 2 -13 5 -13 3 0 67 30 143 66 202 97 282 134 282 129 0 -3 -92
-49 -205 -104 -113 -55 -205 -104 -205 -110 0 -6 4 -11 9 -11 4 0 97 43 205
96 109 53 199 94 202 92 2 -3 -86 -48 -196 -101 -127 -61 -200 -102 -200 -112
0 -9 6 -12 18 -8 14 5 15 3 5 -7 -7 -8 -9 -18 -4 -24 14 -17 51 -86 51 -94 0
-4 -54 -32 -120 -62 -66 -30 -119 -60 -120 -65 0 -6 51 -23 113 -39 61 -15
132 -34 157 -42 336 -98 584 -165 595 -160 8 3 15 12 15 19 0 8 45 173 100
367 61 214 97 357 92 362 -6 6 -52 -11 -117 -41 -60 -28 -109 -50 -110 -49 -1
2 -67 111 -148 243 -135 223 -147 248 -171 340 -28 112 -28 112 41 137 53 19
48 34 -19 48 -44 10 -62 19 -69 34 -15 38 -89 478 -89 535 0 14 30 31 123 69
67 28 129 53 137 56 27 10 93 -2 119 -21z m-1540 -235 c-14 -27 -107 -151
-144 -193 -33 -38 44 81 102 158 46 59 62 73 42 35z m55 0 c-36 -64 -189 -260
-168 -218 11 22 92 139 131 188 33 40 52 56 37 30z m-152 -60 c-17 -24 -46
-61 -67 -83 l-36 -40 32 50 c45 70 91 127 96 121 3 -2 -9 -24 -25 -48z m169 5
c-5 -10 -36 -56 -70 -103 -33 -46 -59 -86 -57 -87 11 -11 44 21 106 103 39 52
72 94 75 94 6 0 -62 -108 -83 -133 -8 -9 -12 -20 -8 -25 5 -4 35 22 68 58 45
49 54 55 34 26 -31 -48 -26 -57 15 -27 21 16 34 20 41 13 7 -7 2 -15 -13 -25
-21 -14 -205 -101 -456 -218 -38 -17 -81 -43 -97 -58 -27 -25 -28 -25 -17 -3
15 28 44 46 187 117 106 53 112 58 155 122 70 107 153 207 120 146z m-252 -38
c-34 -47 -72 -85 -54 -55 27 47 67 100 76 100 6 0 -4 -20 -22 -45z m-549 -567
c23 -57 49 -119 57 -138 9 -19 21 -48 28 -65 7 -16 44 -104 83 -195 39 -91 98
-232 132 -315 34 -82 71 -170 82 -195 26 -57 101 -230 183 -425 118 -279 326
-760 358 -823 73 -150 200 -232 363 -233 105 -1 140 8 254 70 58 31 110 58
115 60 6 2 96 52 200 111 105 59 222 124 260 145 142 77 142 77 270 151 22 13
54 31 70 39 141 76 123 56 190 210 60 138 139 290 155 300 23 14 -76 -205
-154 -344 -20 -35 -34 -66 -31 -70 15 -14 41 23 89 129 49 108 132 260 141
260 5 0 -19 -64 -58 -155 -12 -27 -39 -83 -61 -124 -23 -44 -34 -72 -25 -69 8
2 23 22 34 44 65 131 139 264 146 264 5 0 0 -19 -11 -42 -41 -90 -89 -212 -86
-216 2 -2 29 44 60 101 61 115 102 165 65 81 -51 -119 -61 -148 -44 -134 8 7
32 44 52 83 41 78 55 77 24 -2 -25 -63 -10 -67 27 -6 26 44 53 65 32 24 -17
-31 -4 -36 30 -11 16 12 36 22 43 22 8 0 20 7 27 15 7 8 17 15 22 15 8 0 287
154 328 180 8 6 26 16 40 23 14 7 69 38 123 71 54 32 101 56 104 53 7 -7 -63
-51 -240 -153 -76 -43 -154 -88 -173 -99 -69 -41 -551 -313 -614 -348 -91 -49
-174 -94 -250 -135 -36 -19 -69 -38 -75 -42 -5 -4 -44 -25 -85 -47 -111 -59
-171 -92 -310 -170 -69 -39 -154 -86 -190 -105 -74 -40 -151 -82 -260 -143
-110 -62 -137 -68 -259 -63 -91 4 -114 9 -164 33 -77 38 -141 109 -184 203
-19 42 -49 106 -65 142 -16 36 -52 119 -80 185 -56 133 -73 174 -136 315 -11
25 -43 100 -70 166 -28 66 -62 145 -75 175 -14 30 -48 110 -77 179 -29 69 -92
220 -141 335 -90 212 -94 221 -122 285 -9 19 -50 116 -91 215 -42 99 -80 187
-85 196 -11 20 -25 89 -18 89 2 0 24 -46 47 -102z m2079 -530 c-26 -16 -341
-168 -347 -167 -4 0 72 40 168 88 96 49 177 87 179 85 2 -2 2 -5 0 -6z m11
-33 c0 -5 -330 -165 -339 -164 -5 1 327 167 337 169 1 0 2 -2 2 -5z m-4 -50
c-11 -8 -25 -15 -30 -15 -6 1 0 7 14 15 32 19 40 18 16 0z m641 -763 c-37 -87
-147 -286 -153 -279 -9 9 120 285 158 340 33 47 31 23 -5 -61z m-48 11 c-27
-63 -130 -245 -135 -240 -7 7 102 246 122 268 29 32 34 21 13 -28z m-84 -60
c-63 -115 -87 -125 -39 -17 32 71 42 84 61 84 11 0 5 -18 -22 -67z m-64 -10
c-26 -50 -50 -81 -51 -65 0 14 26 69 42 90 22 26 27 10 9 -25z m-71 -23 c0 -5
-5 -10 -11 -10 -5 0 -7 5 -4 10 3 6 8 10 11 10 2 0 4 -4 4 -10z"/>
</g>
</svg>
