<?xml version="1.0" standalone="no"?>
<!DOCTYPE svg PUBLIC "-//W3C//DTD SVG 20010904//EN"
 "http://www.w3.org/TR/2001/REC-SVG-20010904/DTD/svg10.dtd">
<svg version="1.0" xmlns="http://www.w3.org/2000/svg"
 width="512.000000pt" height="512.000000pt" viewBox="0 0 512.000000 512.000000"
 preserveAspectRatio="xMidYMid meet">
<metadata>
Created by potrace 1.14, written by Peter Selinger 2001-2017
</metadata>
<g transform="translate(0.000000,512.000000) scale(0.100000,-0.100000)"
fill="#000000" stroke="none">
<path d="M3130 5113 c-341 -23 -578 -63 -761 -129 -58 -21 -76 -24 -96 -15
-19 9 -54 1 -201 -44 -287 -90 -482 -157 -482 -166 0 -5 5 -9 10 -9 22 0 114
-98 166 -177 l54 -83 48 19 c26 10 165 66 310 124 l263 105 29 -51 c45 -79
136 -377 119 -391 -2 -1 -137 -56 -299 -120 -162 -65 -297 -120 -299 -122 -2
-2 19 -86 47 -186 127 -457 325 -1335 310 -1379 -2 -6 -34 130 -72 302 -150
686 -297 1239 -403 1509 -81 205 -127 285 -219 377 -88 87 -104 91 -104 24 0
-35 -2 -37 -78 -70 -176 -78 -386 -205 -587 -356 -151 -113 -245 -201 -245
-229 0 -16 -24 -41 -85 -89 -46 -37 -97 -83 -111 -103 -26 -34 -26 -35 -10
-77 9 -23 44 -98 79 -167 l62 -125 50 3 c28 2 97 13 153 26 l102 23 22 -33
c16 -23 31 -34 48 -34 53 0 231 32 370 66 116 29 436 128 511 158 12 5 20 -4
32 -35 9 -24 15 -44 13 -46 -2 -2 -149 -68 -327 -147 -528 -233 -641 -286
-702 -329 -62 -43 -114 -107 -142 -172 -20 -48 -35 -208 -24 -273 9 -58 861
-2072 990 -2339 78 -162 175 -244 327 -273 78 -16 191 -8 252 16 44 18 807
436 1525 836 842 469 882 495 935 599 28 54 49 171 50 270 0 145 -5 154 -399
757 -726 1109 -907 1380 -970 1445 -46 49 -142 96 -215 106 -95 13 -167 -4
-331 -75 -199 -87 -185 -85 -185 -36 l0 40 143 75 c324 170 588 353 632 438
35 68 9 303 -45 409 -45 87 -136 162 -192 158 -12 -1 -43 -3 -68 -5z m-2500
-1159 c0 -3 -22 -26 -50 -51 -64 -57 -66 -78 -7 -68 92 15 89 17 130 -63 21
-40 36 -76 32 -81 -3 -5 -41 -21 -85 -36 -44 -15 -82 -31 -86 -36 -9 -16 29
-83 56 -97 l25 -13 -29 3 c-28 3 -36 14 -105 150 l-75 148 35 36 c71 75 159
135 159 108z m2483 -128 c70 -26 101 -62 262 -312 87 -137 218 -341 290 -454
73 -113 244 -380 382 -595 138 -214 258 -405 267 -424 10 -18 19 -56 21 -85 1
-28 1 -37 -2 -21 -2 17 -9 44 -16 60 -9 24 -307 494 -522 825 -23 36 -100 155
-170 265 -70 110 -143 223 -160 250 -18 28 -83 129 -145 225 -61 96 -121 183
-133 193 -44 37 -101 57 -162 57 -52 0 -76 -8 -189 -60 -71 -33 -131 -58 -134
-55 -8 8 -5 10 123 70 164 78 211 88 288 61z m9 -193 c44 -37 39 -30 184 -263
303 -486 502 -796 710 -1106 122 -182 229 -346 238 -363 26 -49 -7 -140 -66
-184 -94 -69 -1749 -947 -1832 -971 -145 -43 -265 -27 -334 42 -30 30 -78 125
-231 457 -190 411 -398 884 -547 1237 -81 195 -90 243 -55 308 35 65 99 107
336 215 125 58 232 105 236 105 12 0 239 -278 239 -292 0 -8 -29 -87 -65 -177
-37 -90 -64 -165 -62 -167 2 -3 59 20 126 50 68 30 130 58 140 61 23 7 59 -51
171 -275 45 -91 86 -169 90 -173 4 -5 41 8 81 29 166 83 379 182 379 176 0 -4
-97 -54 -215 -111 -119 -58 -218 -108 -221 -113 -17 -27 26 -11 227 86 121 59
223 105 226 102 3 -2 -28 -20 -69 -39 -321 -151 -404 -197 -357 -197 6 0 104
45 217 100 113 55 210 99 215 97 5 -1 -88 -50 -207 -107 -119 -57 -216 -110
-216 -117 0 -7 2 -13 4 -13 3 0 102 47 222 105 119 58 219 103 222 100 3 -2
-95 -53 -217 -111 -147 -72 -218 -111 -212 -117 7 -7 82 24 222 92 116 56 214
100 216 97 5 -4 -311 -161 -389 -193 -38 -15 -46 -27 -29 -37 5 -3 102 40 215
95 114 56 209 100 211 97 3 -3 -90 -51 -206 -107 -161 -77 -209 -105 -200
-114 8 -8 59 13 211 88 110 54 202 96 205 94 2 -3 -88 -49 -200 -104 -113 -54
-205 -102 -205 -106 0 -22 26 -16 99 21 44 22 84 40 88 39 5 0 -31 -20 -79
-44 -64 -33 -86 -49 -82 -60 4 -8 10 -13 14 -10 5 3 6 -3 3 -12 -3 -11 -53
-41 -129 -77 -68 -33 -124 -62 -124 -65 0 -3 64 -24 143 -45 78 -21 281 -78
452 -127 170 -48 310 -87 311 -86 1 1 27 94 58 207 30 113 80 289 109 393 46
157 52 187 38 187 -9 0 -61 -20 -115 -45 -55 -25 -104 -45 -110 -45 -6 0 -78
111 -161 247 -156 255 -149 241 -200 441 -5 19 2 26 50 49 30 15 55 31 55 35
0 4 -28 13 -61 20 -45 9 -64 18 -70 33 -20 48 -102 566 -91 577 4 4 66 32 137
62 156 66 204 72 257 29z m-1638 -295 c-69 -100 -135 -181 -141 -174 -6 5 12
32 110 164 38 50 73 92 79 92 5 0 -16 -37 -48 -82z m66 9 c-53 -77 -172 -237
-176 -237 -15 0 148 245 195 291 32 33 24 7 -19 -54z m-96 31 c-28 -48 -139
-188 -142 -179 -4 12 77 131 115 169 24 24 38 29 27 10z m159 -15 c-3 -10 -39
-65 -80 -122 -69 -96 -86 -132 -47 -100 9 7 47 55 85 106 38 51 74 93 80 93 6
0 -15 -36 -45 -81 -31 -44 -56 -83 -56 -85 0 -15 43 23 79 71 50 66 75 74 31
10 -34 -50 -27 -58 18 -20 35 29 38 30 46 10 4 -12 -18 -27 -92 -62 -53 -25
-182 -86 -287 -135 -104 -49 -203 -101 -219 -116 -25 -23 -27 -24 -17 -5 17
34 57 60 187 123 104 51 125 65 149 102 41 63 164 228 170 228 2 0 2 -8 -2
-17z m-293 -88 c-29 -36 -55 -64 -58 -61 -7 7 68 115 88 126 29 17 22 0 -30
-65z m-50 17 c0 -5 -12 -19 -27 -33 -20 -17 -23 -18 -10 -3 9 11 17 26 17 32
0 7 5 12 10 12 6 0 10 -4 10 -8z m-541 -514 c10 -24 48 -113 84 -198 192 -458
674 -1589 815 -1912 108 -246 128 -282 191 -341 98 -92 222 -126 372 -103 67
11 98 25 324 150 138 76 275 152 305 169 30 16 183 101 340 188 l286 159 59
133 c74 167 167 345 173 328 6 -17 -58 -161 -135 -309 -36 -68 -63 -125 -61
-128 13 -13 50 41 87 126 55 126 133 272 148 277 16 6 2 -29 -88 -215 -37 -79
-63 -142 -56 -140 7 2 50 79 97 171 47 91 89 169 93 174 24 23 -42 -147 -103
-267 -12 -24 -15 -38 -8 -35 7 3 36 51 65 108 29 56 59 111 67 122 30 41 24 7
-15 -79 -21 -49 -39 -93 -39 -98 0 -23 24 9 60 82 57 113 83 125 35 16 -30
-68 -30 -69 -7 -57 10 5 27 28 36 50 24 52 53 67 32 16 -14 -32 -6 -50 10 -24
3 6 25 19 48 30 60 29 611 339 681 384 l30 19 -20 -23 c-20 -23 -211 -140
-478 -292 -81 -46 -169 -96 -195 -111 -26 -15 -60 -35 -77 -43 -52 -27 -94
-52 -107 -62 -7 -6 -48 -29 -91 -52 -134 -71 -221 -119 -267 -145 -25 -14 -56
-31 -70 -38 -14 -7 -112 -61 -219 -120 -106 -60 -195 -108 -197 -108 -2 0
-120 -65 -261 -143 -399 -222 -423 -234 -491 -248 -198 -38 -369 43 -460 218
-41 80 -256 575 -537 1238 -86 204 -183 431 -215 505 -32 74 -95 223 -140 330
-45 107 -88 209 -95 225 -8 17 -16 41 -20 55 -4 14 -9 33 -11 43 -10 32 5 17
25 -25z m2121 -753 c-58 -30 -109 -54 -115 -54 -5 0 37 24 95 54 58 30 110 54
115 54 6 0 -37 -24 -95 -54z m70 -10 c-25 -13 -49 -24 -55 -24 -5 0 10 11 35
24 25 13 50 24 55 24 6 0 -10 -11 -35 -24z m-230 -110 c-47 -24 -89 -44 -95
-44 -5 0 28 20 75 44 47 24 90 44 95 44 6 0 -28 -20 -75 -44z m100 5 c-8 -5
-19 -10 -25 -10 -5 0 -3 5 5 10 8 5 20 10 25 10 6 0 3 -5 -5 -10z m755 -745
c-54 -107 -101 -195 -106 -195 -13 0 -13 2 37 112 92 206 146 300 161 284 3
-3 -38 -93 -92 -201z m-2 108 c-15 -32 -34 -71 -43 -88 -10 -16 -34 -61 -55
-98 -20 -38 -39 -66 -43 -63 -8 8 107 261 130 286 33 36 38 21 11 -37z m-90
-63 c-57 -107 -87 -123 -42 -22 25 57 67 112 85 112 3 0 -16 -40 -43 -90z
m-70 -21 c-37 -69 -60 -77 -32 -12 20 45 47 78 57 69 2 -3 -9 -28 -25 -57z
m-63 -4 c-7 -8 -17 -15 -22 -15 -6 0 -5 7 2 15 7 8 17 15 22 15 6 0 5 -7 -2
-15z m74 -90 c-4 -8 -11 -15 -16 -15 -6 0 -5 6 2 15 7 8 14 15 16 15 2 0 1 -7
-2 -15z"/>
</g>
</svg>
