<?xml version="1.0" standalone="no"?>
<!DOCTYPE svg PUBLIC "-//W3C//DTD SVG 20010904//EN"
 "http://www.w3.org/TR/2001/REC-SVG-20010904/DTD/svg10.dtd">
<svg version="1.0" xmlns="http://www.w3.org/2000/svg"
 width="700.000000pt" height="700.000000pt" viewBox="0 0 700.000000 700.000000"
 preserveAspectRatio="xMidYMid meet">
<metadata>
Created by potrace 1.11, written by Peter Selinger 2001-2013
</metadata>
<g transform="translate(0.000000,700.000000) scale(0.100000,-0.100000)"
fill="#000000" stroke="none">
<path d="M3043 6515 c-31 -16 -61 -41 -78 -65 l-27 -39 -611 -4 c-582 -3 -616
-4 -702 -25 -244 -57 -385 -134 -436 -239 -23 -46 -24 -58 -24 -243 0 -185 1
-197 24 -243 27 -55 95 -114 180 -156 70 -35 130 -55 251 -83 90 -20 125 -22
695 -27 l600 -6 3 -367 2 -368 -782 -2 -783 -3 -68 -32 c-90 -43 -179 -128
-216 -207 -35 -74 -38 -94 -102 -571 -27 -209 -74 -549 -104 -756 -108 -748
-182 -1304 -225 -1694 -26 -236 -30 -306 -30 -555 0 -247 2 -294 19 -352 44
-160 166 -287 320 -334 39 -12 435 -14 2577 -14 1783 0 2548 3 2589 11 105 19
201 81 252 162 49 78 53 108 53 459 0 297 -2 340 -25 485 -13 87 -117 786
-230 1554 -127 863 -213 1419 -225 1454 -11 31 -34 82 -52 113 -43 76 -159
191 -229 225 -116 58 -104 57 -867 57 l-702 0 2 368 3 367 600 6 c562 5 606 7
693 26 231 53 380 134 435 237 21 38 22 53 22 246 0 193 -1 208 -22 246 -62
116 -257 210 -516 248 -85 13 -211 16 -670 16 l-565 0 -16 25 c-25 38 -58 66
-101 86 -37 17 -72 19 -451 19 l-410 0 -51 -25z m883 -138 l24 -28 0 -1603 c0
-882 -3 -1618 -6 -1635 -6 -31 -7 -31 -69 -31 l-62 0 -7 77 c-3 42 -6 98 -6
125 l0 48 -300 0 -300 0 0 -77 c0 -43 -3 -102 -6 -130 l-7 -53 -62 0 -63 0 -7
383 c-4 210 -5 945 -3 1634 3 1251 3 1252 24 1280 11 15 32 31 45 34 13 4 194
7 402 6 l379 -2 24 -28z m-1006 -174 c0 -32 -4 -64 -8 -70 -6 -10 -164 -14
-672 -17 -366 -3 -716 -8 -777 -11 -62 -4 -113 -2 -113 2 0 5 19 28 43 50 47
47 116 81 186 93 25 4 337 8 694 9 l647 1 0 -57z m2515 46 c33 -6 80 -22 106
-35 47 -23 119 -88 119 -106 0 -5 -47 -7 -112 -3 -62 3 -416 8 -785 11 l-673
5 0 69 0 70 643 0 c421 0 664 -4 702 -11z m373 -2146 c17 -58 127 -752 287
-1823 187 -1244 178 -1176 170 -1290 -3 -52 -9 -178 -13 -280 -6 -157 -10
-192 -28 -231 -42 -90 -118 -153 -222 -184 -44 -13 -349 -15 -2498 -13 l-2449
3 -58 27 c-77 36 -179 138 -215 215 -27 57 -27 61 -30 293 -2 129 2 287 8 350
40 407 119 1009 245 1870 36 245 83 567 103 715 l37 270 58 3 57 3 -5 -28 c-3
-15 -25 -192 -50 -393 -25 -201 -48 -375 -50 -387 -5 -23 -5 -23 114 -23 l120
0 -5 -32 c-24 -166 -184 -1594 -184 -1646 0 -172 92 -303 249 -352 61 -19 88
-20 985 -19 506 1 1427 4 2046 8 l1125 6 47 23 c63 31 120 96 148 168 45 114
38 194 -88 1039 -61 413 -114 762 -116 778 l-5 27 104 0 c58 0 105 3 105 6 0
33 -122 867 -130 888 -16 44 -14 46 58 46 l69 0 11 -37z m-647 -41 c70 -28
140 -88 162 -139 9 -22 89 -530 190 -1208 152 -1016 174 -1178 167 -1232 -10
-77 -37 -132 -78 -156 -30 -17 -125 -19 -2044 -26 -2188 -9 -2070 -12 -2138
46 -37 31 -67 87 -76 140 -3 21 4 117 15 213 12 96 75 625 141 1176 93 779
123 1010 139 1046 25 58 86 127 128 145 26 10 145 13 593 13 l560 0 -5 -22
c-3 -13 -34 -201 -71 -418 -36 -217 -100 -600 -142 -850 l-77 -455 -297 -5
-296 -5 685 -440 c377 -242 691 -441 699 -443 8 -2 361 196 785 440 l770 443
-307 5 -307 5 -94 615 c-51 338 -111 730 -132 870 -22 140 -37 259 -34 263 3
5 231 7 506 5 495 -3 503 -4 558 -26z"/>
<path d="M882 788 c3 -133 5 -147 31 -200 16 -32 48 -75 73 -97 88 -78 -140
-71 2554 -69 l2415 3 48 24 c30 15 58 39 75 64 25 37 27 50 31 165 2 68 0 153
-4 188 l-7 64 -128 0 c-116 0 -130 -2 -143 -20 -7 -10 -26 -24 -41 -30 -41
-15 -4120 -14 -4149 2 -12 6 -28 19 -35 30 -10 14 -26 18 -72 18 -52 0 -62 -3
-88 -30 -18 -17 -41 -30 -55 -30 -15 0 -38 13 -55 30 l-30 30 -212 0 -212 0 4
-142z"/>
</g>
</svg>
